<?xml version="1.0" encoding="UTF-8"?>
<svg id="Layer_1" data-name="Layer 1" xmlns="http://www.w3.org/2000/svg" width="1820.77" height="562.42" viewBox="0 0 1820.77 562.42">
  <rect width="562.42" height="562.42" rx="50" ry="50" fill="#f7f7f7" stroke-width="0"/>
  <g id="Layer_1-2" data-name="Layer 1">
    <path d="M424.96,133.29c1.62,0,3.15-.46,4.55-1.4,1.4-.93,2.57-2.5,3.5-4.73.93-2.22,1.62-5.01,2.1-8.4.46-3.38.7-7.28.7-11.72,0-7.46-.58-13.17-1.75-17.14-1.17-3.96-3.27-7.46-6.3-10.5-3.04-3.03-8.58-6.94-16.62-11.72-8.05-4.78-17.96-9.21-29.74-13.29-11.78-4.08-25.25-7.63-40.41-10.67-15.17-3.03-31.38-4.55-48.63-4.55-33.59,0-64.2,5.66-91.84,16.97-27.64,11.32-51.31,27.23-71.02,47.76-19.71,20.53-34.98,45.37-45.83,74.52-10.85,29.16-16.27,61.7-16.27,97.62s5.01,65.78,15.05,93.77c10.02,27.99,24.54,52.02,43.56,72.07,19.01,20.06,42.28,35.51,69.8,46.36,27.52,10.85,58.78,16.26,93.77,16.26,11.43,0,22.98-.7,34.63-2.1,11.66-1.4,23.21-3.5,34.63-6.3,11.43-2.8,22.5-6.18,33.24-10.14,10.73-3.96,19.47-7.63,26.24-11.02,6.77-3.38,11.2-7.28,13.29-11.72,2.1-4.43,3.15-9.67,3.15-15.75v-164.73c-1.38.35-2.78.66-4.18.92-.87,1.3-2.31,2.25-4.29,2.35-9.72.52-19.41,1.26-29.1.14-6.75,8.96-13.74,17.82-22.61,24.76v120.8c-12.37,6.77-25.72,11.84-40.06,15.22-14.34,3.39-28.51,5.08-42.51,5.08-23.57,0-45.19-3.96-64.9-11.9-19.72-7.93-36.68-19.6-50.91-34.98-14.23-15.4-25.37-34.28-33.42-56.68-8.05-22.39-12.07-48.05-12.07-76.98,0-25.89,3.67-49.91,11.02-72.07,7.35-22.15,17.9-41.29,31.66-57.38,13.76-16.1,30.55-28.69,50.38-37.78,19.82-9.09,42.21-13.64,67.17-13.64,20.99,0,39.13,2.22,54.41,6.65,15.28,4.43,28.39,9.33,39.36,14.7,10.96,5.37,19.71,10.26,26.24,14.7,6.53,4.43,11.2,6.65,13.99,6.65v.02Z" fill="#000" stroke="#000" stroke-miterlimit="10" stroke-width="8"/>
  </g>
  <g id="Layer_2" data-name="Layer 2">
    <rect x="370.08" y="183.76" width="69.06" height="201.34" rx="12.92" ry="12.92" fill="#2e3191" stroke-width="0"/>
    <rect x="303.94" y="249.9" width="201.34" height="69.06" rx="12.92" ry="12.92" fill="#2e3191" stroke-width="0"/>
  </g>
  <g>
    <path d="M813.61,78.4c0,2.45-.11,4.55-.32,6.32-.21,1.77-.51,3.18-.89,4.24-.38,1.05-.84,1.79-1.39,2.21-.55.42-1.2.63-1.96.63-1.1,0-2.87-.76-5.31-2.28-2.45-1.52-5.69-3.16-9.74-4.93s-8.87-3.42-14.48-4.93c-5.61-1.52-12.12-2.28-19.54-2.28-7.93,0-15.09,1.37-21.5,4.11-6.41,2.74-11.89,6.62-16.44,11.63-4.55,5.02-8.05,11.05-10.5,18.08-2.45,7.04-3.67,14.82-3.67,23.33,0,9.36,1.24,17.6,3.73,24.72,2.49,7.12,5.96,13.09,10.43,17.89,4.47,4.81,9.84,8.43,16.12,10.88,6.28,2.45,13.21,3.67,20.8,3.67,3.71,0,7.38-.42,11-1.26,3.62-.84,7-2.11,10.12-3.79v-37.94h-30.98c-1.52,0-2.7-.95-3.54-2.84-.84-1.9-1.27-5.12-1.27-9.67,0-2.36.11-4.34.32-5.94.21-1.6.53-2.89.95-3.86.42-.97.93-1.69,1.52-2.15.59-.46,1.26-.7,2.02-.7h55.26c1.35,0,2.55.23,3.6.7,1.05.46,1.98,1.16,2.78,2.09.8.93,1.41,2.04,1.83,3.35.42,1.31.63,2.8.63,4.49v65.13c0,2.53-.44,4.74-1.33,6.64-.88,1.9-2.7,3.4-5.44,4.49-2.74,1.1-6.13,2.24-10.18,3.42-4.05,1.18-8.24,2.19-12.58,3.04-4.34.84-8.73,1.47-13.15,1.9-4.43.42-8.88.63-13.34.63-13.07,0-24.77-1.88-35.09-5.63-10.33-3.75-19.08-9.19-26.24-16.31-7.17-7.12-12.65-15.81-16.44-26.05-3.79-10.24-5.69-21.86-5.69-34.84s2.02-25.44,6.07-36.11c4.05-10.66,9.78-19.73,17.2-27.19,7.42-7.46,16.38-13.17,26.87-17.14,10.5-3.96,22.2-5.94,35.09-5.94,7.08,0,13.53.49,19.35,1.45,5.82.97,10.9,2.15,15.24,3.54,4.34,1.39,7.95,2.89,10.81,4.49,2.87,1.6,4.87,2.99,6.01,4.17,1.14,1.18,1.96,2.85,2.47,5,.51,2.15.76,5.33.76,9.55Z" fill="#2e3191" stroke-width="0"/>
    <path d="M959.43,102.68c0,9.19-1.43,17.33-4.3,24.41-2.87,7.08-7.04,13.05-12.52,17.89-5.48,4.85-12.2,8.54-20.17,11.07-7.97,2.53-17.35,3.79-28.14,3.79h-13.66v52.23c0,.84-.27,1.6-.82,2.28-.55.68-1.45,1.22-2.72,1.64-1.26.42-2.95.76-5.06,1.01-2.11.25-4.81.38-8.09.38s-5.88-.13-8.03-.38c-2.15-.25-3.86-.59-5.12-1.01-1.26-.42-2.15-.97-2.66-1.64-.51-.67-.76-1.43-.76-2.28V64.87c0-3.96,1.03-6.93,3.1-8.92,2.07-1.98,4.78-2.97,8.16-2.97h38.57c3.88,0,7.57.15,11.07.44,3.5.3,7.69.93,12.58,1.9,4.89.97,9.84,2.76,14.86,5.37,5.02,2.61,9.3,5.92,12.84,9.93,3.54,4.01,6.24,8.68,8.09,14.04,1.85,5.35,2.78,11.36,2.78,18.02ZM924.65,105.08c0-5.73-1.01-10.45-3.04-14.16-2.02-3.71-4.51-6.45-7.46-8.22-2.95-1.77-6.05-2.89-9.3-3.35-3.25-.46-6.6-.7-10.05-.7h-14.16v55.52h14.92c5.31,0,9.76-.71,13.34-2.15,3.58-1.43,6.51-3.43,8.79-6.01,2.28-2.57,4-5.65,5.18-9.23,1.18-3.58,1.77-7.48,1.77-11.7Z" fill="#2e3191" stroke-width="0"/>
    <path d="M1101.7,204.23c1.01,3.04,1.64,5.44,1.9,7.21.25,1.77-.08,3.1-1.01,3.98-.93.88-2.57,1.43-4.93,1.64-2.36.21-5.61.32-9.74.32s-7.65-.06-10.05-.19c-2.4-.13-4.24-.38-5.5-.76-1.27-.38-2.15-.91-2.66-1.58-.51-.67-.93-1.56-1.26-2.66l-11-32.88h-61.46l-10.37,32c-.34,1.18-.78,2.17-1.33,2.97-.55.8-1.43,1.43-2.66,1.9-1.22.46-2.95.78-5.18.95-2.24.17-5.17.25-8.79.25-3.88,0-6.92-.13-9.11-.38-2.19-.25-3.71-.86-4.55-1.83-.84-.97-1.14-2.34-.89-4.11s.89-4.13,1.9-7.08l50.46-145.18c.51-1.43,1.09-2.59,1.77-3.48.67-.89,1.75-1.56,3.22-2.02,1.47-.46,3.52-.76,6.13-.89,2.61-.13,6.07-.19,10.37-.19,4.97,0,8.94.06,11.89.19,2.95.13,5.25.42,6.89.89,1.64.46,2.82,1.16,3.54,2.09.71.93,1.33,2.19,1.83,3.79l50.59,145.06ZM1026.58,84.22h-.13l-23.14,69.56h46.41l-23.14-69.56Z" fill="#2e3191" stroke-width="0"/>
    <path d="M795.53,477.84c0,2.11-.06,3.9-.19,5.38-.13,1.48-.32,2.74-.57,3.79-.25,1.05-.59,1.96-1.01,2.72-.42.76-1.1,1.62-2.02,2.59-.93.97-2.72,2.21-5.38,3.73-2.66,1.52-5.9,2.97-9.74,4.36-3.84,1.39-8.22,2.55-13.15,3.48-4.93.93-10.27,1.39-16,1.39-11.21,0-21.33-1.73-30.35-5.19-9.02-3.46-16.69-8.62-23.02-15.49-6.32-6.87-11.17-15.45-14.54-25.74-3.37-10.29-5.06-22.26-5.06-35.92s1.85-26.26,5.56-37.05c3.71-10.79,8.89-19.86,15.56-27.19,6.66-7.33,14.65-12.9,23.96-16.69,9.32-3.79,19.58-5.69,30.79-5.69,4.55,0,8.94.38,13.15,1.14,4.21.76,8.11,1.75,11.7,2.97,3.58,1.22,6.81,2.64,9.67,4.24,2.87,1.6,4.87,2.97,6.01,4.11s1.92,2.09,2.34,2.85c.42.76.76,1.73,1.01,2.91.25,1.18.44,2.57.57,4.17.13,1.6.19,3.58.19,5.94,0,2.53-.08,4.68-.25,6.45-.17,1.77-.46,3.21-.89,4.3-.42,1.1-.93,1.9-1.52,2.4-.59.51-1.26.76-2.02.76-1.26,0-2.87-.74-4.8-2.21-1.94-1.47-4.45-3.12-7.53-4.93-3.08-1.81-6.75-3.46-11-4.93-4.26-1.47-9.34-2.21-15.24-2.21-6.49,0-12.29,1.33-17.39,3.98-5.1,2.66-9.44,6.45-13.03,11.38-3.58,4.93-6.3,10.9-8.16,17.9-1.86,7-2.78,14.88-2.78,23.65,0,9.61.99,17.94,2.97,24.98,1.98,7.04,4.81,12.84,8.47,17.39,3.67,4.55,8.09,7.95,13.28,10.18,5.18,2.24,11.02,3.35,17.52,3.35,5.9,0,11-.7,15.3-2.09,4.3-1.39,7.99-2.93,11.07-4.62,3.08-1.69,5.61-3.2,7.59-4.55,1.98-1.35,3.52-2.02,4.62-2.02.84,0,1.52.17,2.02.51.51.34.93,1.01,1.26,2.02.34,1.01.59,2.42.76,4.24.17,1.81.25,4.24.25,7.27Z" fill="#2e3191" stroke-width="0"/>
    <path d="M913.65,498.71c0,1.18-.42,2.11-1.26,2.78-.84.68-2.17,1.16-3.98,1.46-1.81.29-4.49.44-8.03.44-3.79,0-6.56-.15-8.28-.44-1.73-.3-2.95-.78-3.67-1.46-.72-.67-1.08-1.6-1.08-2.78v-8.98c-4.64,4.98-9.93,8.85-15.87,11.63-5.94,2.78-12.54,4.17-19.79,4.17-5.99,0-11.49-.78-16.5-2.34-5.02-1.56-9.36-3.88-13.03-6.96-3.67-3.08-6.51-6.89-8.54-11.45s-3.04-9.86-3.04-15.93c0-6.58,1.29-12.29,3.86-17.14,2.57-4.85,6.41-8.85,11.51-12.01,5.1-3.16,11.44-5.5,19.03-7.02s16.4-2.28,26.43-2.28h11v-6.83c0-3.54-.36-6.64-1.07-9.29-.72-2.66-1.9-4.87-3.54-6.64-1.64-1.77-3.84-3.08-6.58-3.92-2.74-.84-6.13-1.26-10.18-1.26-5.31,0-10.05.59-14.23,1.77-4.17,1.18-7.86,2.49-11.07,3.92-3.21,1.43-5.88,2.74-8.03,3.92-2.15,1.18-3.9,1.77-5.25,1.77-.93,0-1.75-.29-2.47-.89-.72-.59-1.31-1.43-1.77-2.53-.46-1.09-.82-2.44-1.08-4.05-.25-1.6-.38-3.37-.38-5.31,0-2.61.21-4.68.63-6.2.42-1.52,1.22-2.89,2.4-4.11,1.18-1.22,3.24-2.57,6.2-4.05,2.95-1.47,6.41-2.84,10.37-4.11,3.96-1.26,8.28-2.3,12.96-3.1,4.68-.8,9.5-1.2,14.48-1.2,8.85,0,16.42.87,22.7,2.59,6.28,1.73,11.45,4.38,15.49,7.97,4.05,3.58,7,8.2,8.85,13.85,1.85,5.65,2.78,12.35,2.78,20.11v75.88ZM882.41,450.4h-12.14c-5.14,0-9.53.38-13.15,1.14-3.63.76-6.58,1.9-8.85,3.41-2.28,1.52-3.94,3.35-5,5.5-1.05,2.15-1.58,4.62-1.58,7.4,0,4.72,1.5,8.43,4.49,11.13,2.99,2.7,7.15,4.05,12.46,4.05,4.47,0,8.58-1.14,12.33-3.42,3.75-2.28,7.57-5.61,11.44-9.99v-19.22Z" fill="#2e3191" stroke-width="0"/>
    <path d="M977.26,498.33c0,.84-.25,1.58-.76,2.21-.51.63-1.37,1.16-2.59,1.58-1.22.42-2.84.74-4.87.95-2.02.21-4.6.32-7.71.32s-5.69-.11-7.71-.32c-2.02-.21-3.65-.53-4.87-.95-1.22-.42-2.09-.95-2.59-1.58-.51-.63-.76-1.37-.76-2.21v-166.3c0-.84.25-1.6.76-2.28.51-.67,1.37-1.24,2.59-1.71,1.22-.46,2.84-.82,4.87-1.08,2.02-.25,4.59-.38,7.71-.38s5.69.13,7.71.38c2.02.25,3.65.61,4.87,1.08,1.22.46,2.09,1.03,2.59,1.71.51.68.76,1.43.76,2.28v166.3Z" fill="#2e3191" stroke-width="0"/>
    <path d="M1094.36,480.37c0,2.19-.06,4.03-.19,5.5-.13,1.48-.3,2.72-.51,3.73-.21,1.01-.46,1.83-.76,2.47-.3.63-.95,1.43-1.96,2.4-1.01.97-2.74,2.15-5.18,3.54-2.45,1.39-5.23,2.64-8.35,3.73-3.12,1.09-6.51,1.98-10.18,2.66-3.67.67-7.44,1.01-11.32,1.01-8.69,0-16.38-1.35-23.08-4.05-6.7-2.7-12.33-6.68-16.88-11.95-4.55-5.27-7.99-11.7-10.31-19.29-2.32-7.59-3.48-16.27-3.48-26.05,0-11.3,1.41-21.06,4.24-29.28,2.82-8.22,6.77-15.03,11.82-20.42,5.06-5.39,11.04-9.4,17.96-12.01,6.91-2.61,14.5-3.92,22.76-3.92,3.37,0,6.68.3,9.93.89,3.25.59,6.28,1.39,9.11,2.4,2.82,1.01,5.35,2.15,7.59,3.41,2.23,1.27,3.81,2.36,4.74,3.29.93.93,1.58,1.71,1.96,2.34.38.63.67,1.45.88,2.47.21,1.01.38,2.26.51,3.73.13,1.48.19,3.27.19,5.37,0,4.89-.42,8.33-1.27,10.31-.84,1.98-1.94,2.97-3.29,2.97-1.44,0-2.95-.59-4.55-1.77-1.6-1.18-3.5-2.49-5.69-3.92-2.19-1.43-4.81-2.74-7.84-3.92-3.04-1.18-6.66-1.77-10.88-1.77-8.26,0-14.59,3.18-18.97,9.55-4.38,6.37-6.58,15.7-6.58,28.01,0,6.07.55,11.43,1.64,16.06,1.09,4.64,2.72,8.52,4.87,11.63,2.15,3.12,4.85,5.46,8.09,7.02,3.25,1.56,7.02,2.34,11.32,2.34s8.16-.65,11.32-1.96c3.16-1.31,5.92-2.76,8.28-4.36,2.36-1.6,4.34-3.05,5.94-4.36,1.6-1.31,2.95-1.96,4.05-1.96.76,0,1.39.21,1.9.63.51.42.91,1.2,1.2,2.34.29,1.14.53,2.59.7,4.36.17,1.77.25,4.05.25,6.83Z" fill="#2e3191" stroke-width="0"/>
    <path d="M1224.37,498.33c0,.84-.21,1.58-.63,2.21-.42.63-1.16,1.16-2.21,1.58-1.05.42-2.45.74-4.17.95-1.73.21-3.9.32-6.51.32-2.78,0-5.04-.11-6.77-.32-1.73-.21-3.1-.53-4.11-.95-1.01-.42-1.73-.95-2.15-1.58-.42-.63-.63-1.37-.63-2.21v-13.03c-6.24,6.75-12.58,11.81-19.03,15.18-6.45,3.37-13.13,5.06-20.04,5.06-7.76,0-14.27-1.26-19.54-3.79-5.27-2.53-9.53-5.99-12.77-10.37-3.25-4.38-5.56-9.46-6.96-15.24-1.39-5.77-2.09-12.96-2.09-21.56v-69.05c0-.84.23-1.58.7-2.21.46-.63,1.31-1.16,2.53-1.58,1.22-.42,2.87-.74,4.93-.95,2.07-.21,4.62-.32,7.65-.32s5.69.11,7.71.32c2.02.21,3.65.53,4.87.95,1.22.42,2.09.95,2.59,1.58.51.63.76,1.37.76,2.21v63.74c0,5.9.38,10.41,1.14,13.53.76,3.12,1.92,5.8,3.48,8.03,1.56,2.23,3.54,3.96,5.94,5.18,2.4,1.22,5.21,1.83,8.41,1.83,4.05,0,8.11-1.47,12.2-4.43,4.09-2.95,8.45-7.25,13.09-12.9v-74.99c0-.84.23-1.58.7-2.21.46-.63,1.31-1.16,2.53-1.58,1.22-.42,2.85-.74,4.87-.95,2.02-.21,4.59-.32,7.71-.32s5.69.11,7.71.32c2.02.21,3.62.53,4.81.95,1.18.42,2.02.95,2.53,1.58.51.63.76,1.37.76,2.21v112.81Z" fill="#2e3191" stroke-width="0"/>
    <path d="M1288.23,498.33c0,.84-.25,1.58-.76,2.21-.51.63-1.37,1.16-2.59,1.58-1.22.42-2.84.74-4.87.95-2.02.21-4.6.32-7.71.32s-5.69-.11-7.71-.32c-2.02-.21-3.65-.53-4.87-.95-1.22-.42-2.09-.95-2.59-1.58-.51-.63-.76-1.37-.76-2.21v-166.3c0-.84.25-1.6.76-2.28.51-.67,1.37-1.24,2.59-1.71,1.22-.46,2.84-.82,4.87-1.08,2.02-.25,4.59-.38,7.71-.38s5.69.13,7.71.38c2.02.25,3.65.61,4.87,1.08,1.22.46,2.09,1.03,2.59,1.71.51.68.76,1.43.76,2.28v166.3Z" fill="#2e3191" stroke-width="0"/>
    <path d="M1416.09,498.71c0,1.18-.42,2.11-1.26,2.78-.84.68-2.17,1.16-3.98,1.46-1.81.29-4.49.44-8.03.44-3.79,0-6.56-.15-8.28-.44-1.73-.3-2.95-.78-3.67-1.46-.72-.67-1.08-1.6-1.08-2.78v-8.98c-4.64,4.98-9.93,8.85-15.87,11.63-5.94,2.78-12.54,4.17-19.79,4.17-5.99,0-11.49-.78-16.5-2.34-5.02-1.56-9.36-3.88-13.03-6.96-3.67-3.08-6.51-6.89-8.54-11.45s-3.04-9.86-3.04-15.93c0-6.58,1.29-12.29,3.86-17.14,2.57-4.85,6.41-8.85,11.51-12.01,5.1-3.16,11.44-5.5,19.03-7.02s16.4-2.28,26.43-2.28h11v-6.83c0-3.54-.36-6.64-1.07-9.29-.72-2.66-1.9-4.87-3.54-6.64-1.64-1.77-3.84-3.08-6.58-3.92-2.74-.84-6.13-1.26-10.18-1.26-5.31,0-10.05.59-14.23,1.77-4.17,1.18-7.86,2.49-11.07,3.92-3.21,1.43-5.88,2.74-8.03,3.92-2.15,1.18-3.9,1.77-5.25,1.77-.93,0-1.75-.29-2.47-.89-.72-.59-1.31-1.43-1.77-2.53-.46-1.09-.82-2.44-1.08-4.05-.25-1.6-.38-3.37-.38-5.31,0-2.61.21-4.68.63-6.2.42-1.52,1.22-2.89,2.4-4.11,1.18-1.22,3.24-2.57,6.2-4.05,2.95-1.47,6.41-2.84,10.37-4.11,3.96-1.26,8.28-2.3,12.96-3.1,4.68-.8,9.5-1.2,14.48-1.2,8.85,0,16.42.87,22.7,2.59,6.28,1.73,11.45,4.38,15.49,7.97,4.05,3.58,7,8.2,8.85,13.85,1.85,5.65,2.78,12.35,2.78,20.11v75.88ZM1384.85,450.4h-12.14c-5.14,0-9.53.38-13.15,1.14-3.63.76-6.58,1.9-8.85,3.41-2.28,1.52-3.94,3.35-5,5.5-1.05,2.15-1.58,4.62-1.58,7.4,0,4.72,1.5,8.43,4.49,11.13,2.99,2.7,7.15,4.05,12.46,4.05,4.47,0,8.58-1.14,12.33-3.42,3.75-2.28,7.57-5.61,11.44-9.99v-19.22Z" fill="#2e3191" stroke-width="0"/>
    <path d="M1512.2,487.2c0,3.71-.23,6.56-.7,8.54-.46,1.98-1.08,3.37-1.83,4.17-.76.8-1.88,1.52-3.35,2.15-1.48.63-3.21,1.18-5.18,1.64-1.98.46-4.13.82-6.45,1.08-2.32.25-4.66.38-7.02.38-6.32,0-11.8-.8-16.44-2.4-4.64-1.6-8.47-4.07-11.51-7.4-3.04-3.33-5.27-7.53-6.7-12.58-1.43-5.06-2.15-11.04-2.15-17.96v-57.79h-13.53c-1.6,0-2.83-.99-3.67-2.97-.84-1.98-1.27-5.29-1.27-9.93,0-2.44.11-4.51.32-6.2.21-1.69.53-3.01.95-3.98.42-.97.95-1.66,1.58-2.09.63-.42,1.37-.63,2.21-.63h13.41v-25.17c0-.84.23-1.6.7-2.28.46-.67,1.31-1.24,2.53-1.71,1.22-.46,2.87-.8,4.93-1.01,2.07-.21,4.62-.32,7.65-.32s5.71.11,7.78.32c2.07.21,3.69.55,4.87,1.01,1.18.46,2.02,1.03,2.53,1.71.51.68.76,1.44.76,2.28v25.17h24.53c.84,0,1.58.21,2.21.63.63.42,1.16,1.12,1.58,2.09.42.97.74,2.3.95,3.98.21,1.69.32,3.75.32,6.2,0,4.64-.42,7.95-1.26,9.93-.84,1.98-2.07,2.97-3.67,2.97h-24.66v52.99c0,6.16.97,10.77,2.91,13.85,1.94,3.08,5.39,4.62,10.37,4.62,1.68,0,3.2-.15,4.55-.44,1.35-.29,2.55-.63,3.6-1.01,1.05-.38,1.94-.71,2.66-1.01.71-.29,1.37-.44,1.96-.44.51,0,.99.15,1.45.44.46.3.82.89,1.08,1.77.25.89.48,2.09.7,3.6.21,1.52.32,3.46.32,5.82Z" fill="#2e3191" stroke-width="0"/>
    <path d="M1646.76,440.78c0,9.61-1.26,18.38-3.79,26.3-2.53,7.93-6.37,14.76-11.51,20.49-5.14,5.73-11.59,10.16-19.35,13.28-7.76,3.12-16.82,4.68-27.19,4.68s-18.76-1.39-26.18-4.17c-7.42-2.78-13.58-6.83-18.46-12.14-4.89-5.31-8.52-11.84-10.88-19.6-2.36-7.75-3.54-16.61-3.54-26.56s1.28-18.4,3.86-26.37c2.57-7.97,6.43-14.8,11.57-20.49,5.14-5.69,11.57-10.1,19.29-13.22,7.71-3.12,16.76-4.68,27.13-4.68s18.88,1.37,26.3,4.11c7.42,2.74,13.55,6.77,18.4,12.08,4.85,5.31,8.45,11.85,10.81,19.6,2.36,7.76,3.54,16.65,3.54,26.68ZM1614.01,442.05c0-5.56-.44-10.69-1.33-15.37-.89-4.68-2.38-8.75-4.49-12.2-2.11-3.46-4.91-6.15-8.41-8.09-3.5-1.94-7.9-2.91-13.22-2.91-4.72,0-8.85.87-12.39,2.59-3.54,1.73-6.45,4.26-8.73,7.59-2.28,3.33-3.98,7.33-5.12,12.01-1.14,4.68-1.71,10.01-1.71,16,0,5.56.46,10.69,1.39,15.37.93,4.68,2.42,8.75,4.49,12.2,2.07,3.46,4.87,6.13,8.41,8.03,3.54,1.9,7.92,2.85,13.15,2.85,4.81,0,8.98-.86,12.52-2.59,3.54-1.73,6.45-4.24,8.73-7.52s3.96-7.27,5.06-11.95c1.09-4.68,1.64-10.01,1.64-16Z" fill="#2e3191" stroke-width="0"/>
    <path d="M1744.39,396.02c0,3.04-.08,5.52-.25,7.46-.17,1.94-.42,3.46-.76,4.55-.34,1.1-.78,1.86-1.33,2.28-.55.42-1.25.63-2.09.63-.68,0-1.43-.15-2.28-.44-.84-.29-1.79-.61-2.85-.95-1.05-.34-2.21-.65-3.48-.95-1.26-.29-2.66-.44-4.17-.44-1.77,0-3.54.36-5.31,1.07-1.77.72-3.6,1.83-5.5,3.35-1.9,1.52-3.88,3.54-5.94,6.07-2.07,2.53-4.28,5.65-6.64,9.36v70.31c0,.84-.25,1.58-.76,2.21-.51.63-1.37,1.16-2.59,1.58-1.22.42-2.84.74-4.87.95-2.02.21-4.6.32-7.71.32s-5.69-.11-7.71-.32c-2.02-.21-3.65-.53-4.87-.95-1.22-.42-2.09-.95-2.59-1.58-.51-.63-.76-1.37-.76-2.21v-112.81c0-.84.21-1.58.63-2.21.42-.63,1.18-1.16,2.28-1.58,1.09-.42,2.51-.74,4.24-.95,1.73-.21,3.9-.32,6.51-.32s4.93.11,6.7.32c1.77.21,3.14.53,4.11.95.97.42,1.66.95,2.09,1.58.42.63.63,1.37.63,2.21v14.04c2.95-4.21,5.73-7.69,8.35-10.43,2.61-2.74,5.1-4.91,7.46-6.51,2.36-1.6,4.72-2.72,7.08-3.35,2.36-.63,4.72-.95,7.08-.95,1.09,0,2.28.06,3.54.19,1.26.13,2.57.34,3.92.63,1.35.3,2.53.63,3.54,1.01,1.01.38,1.75.78,2.21,1.2.46.42.8.88,1.01,1.39.21.51.4,1.2.57,2.09.17.88.29,2.21.38,3.98.08,1.77.13,4.17.13,7.21Z" fill="#2e3191" stroke-width="0"/>
  </g>
</svg>