<?xml version="1.0" encoding="UTF-8"?>
<svg xmlns="http://www.w3.org/2000/svg" viewBox="0 0 512 512">
  <g id="Layer_1" data-name="Layer 1">
    <path d="M424.99,106.85c1.76,0,3.41-.5,4.93-1.52,1.52-1.01,2.78-2.71,3.79-5.12,1.01-2.4,1.76-5.43,2.27-9.1.5-3.66.76-7.89.76-12.7,0-8.08-.63-14.27-1.9-18.57-1.27-4.29-3.54-8.08-6.82-11.37-3.29-3.28-9.29-7.52-18-12.7-8.72-5.18-19.46-9.98-32.22-14.4-12.76-4.42-27.35-8.27-43.78-11.56-16.43-3.28-33.99-4.93-52.68-4.93-36.39,0-69.55,6.13-99.49,18.38-29.94,12.26-55.59,29.5-76.94,51.74-21.35,22.24-37.9,49.15-49.65,80.73-11.75,31.59-17.63,66.84-17.63,105.75s5.43,71.26,16.3,101.58c10.86,30.32,26.59,56.35,47.19,78.08,20.59,21.73,45.8,38.47,75.62,50.22,29.81,11.75,63.68,17.62,101.58,17.62,12.38,0,24.89-.76,37.52-2.27,12.63-1.52,25.14-3.79,37.52-6.82,12.38-3.03,24.38-6.69,36.01-10.99,11.62-4.29,21.09-8.27,28.43-11.94,7.33-3.66,12.13-7.89,14.4-12.7,2.27-4.8,3.41-10.48,3.41-17.06v-178.46c-1.5.38-3.01.72-4.53,1-.94,1.41-2.5,2.44-4.65,2.55-10.53.56-21.03,1.36-31.53.15-7.31,9.71-14.88,19.31-24.49,26.82v130.87c-13.4,7.33-27.86,12.83-43.4,16.49-15.54,3.67-30.89,5.5-46.05,5.5-25.53,0-48.96-4.29-70.31-12.89-21.36-8.59-39.74-21.23-55.15-37.9-15.42-16.68-27.48-37.14-36.2-61.4-8.72-24.26-13.08-52.05-13.08-83.39,0-28.05,3.98-54.07,11.94-78.08,7.96-24,19.39-44.73,34.3-62.16,14.91-17.44,33.1-31.08,54.58-40.93,21.47-9.85,45.73-14.78,72.77-14.78,22.74,0,42.39,2.4,58.94,7.2,16.55,4.8,30.76,10.11,42.64,15.92,11.87,5.82,21.35,11.12,28.43,15.92,7.07,4.8,12.13,7.2,15.16,7.2Z" style="fill: #fff; stroke: #fff; stroke-miterlimit: 10; stroke-width: 8px;"/>
  </g>
  <g id="Layer_2" data-name="Layer 2">
    <rect x="293.88" y="233.18" width="218.12" height="74.82" rx="14" ry="14" transform="translate(673.53 -132.35) rotate(90)" style="fill: #2e3191; stroke-width: 0px;"/>
    <rect x="293.88" y="233.18" width="218.12" height="74.82" rx="14" ry="14" transform="translate(805.88 541.18) rotate(180)" style="fill: #2e3191; stroke-width: 0px;"/>
  </g>
</svg>