<?xml version="1.0" encoding="UTF-8"?>
<svg id="Layer_1" data-name="Layer 1" xmlns="http://www.w3.org/2000/svg" width="1687.78" height="562.42" viewBox="0 0 1687.78 562.42">
  <rect width="562.42" height="562.42" rx="50" ry="50" fill="#f7f7f7" stroke-width="0"/>
  <g id="Layer_1-2" data-name="Layer 1">
    <path d="M424.96,133.29c1.62,0,3.15-.46,4.55-1.4,1.4-.93,2.57-2.5,3.5-4.73.93-2.22,1.62-5.01,2.1-8.4.46-3.38.7-7.28.7-11.72,0-7.46-.58-13.17-1.75-17.14-1.17-3.96-3.27-7.46-6.3-10.5-3.04-3.03-8.58-6.94-16.62-11.72-8.05-4.78-17.96-9.21-29.74-13.29-11.78-4.08-25.25-7.63-40.41-10.67-15.17-3.03-31.38-4.55-48.63-4.55-33.59,0-64.2,5.66-91.84,16.97-27.64,11.32-51.31,27.23-71.02,47.76-19.71,20.53-34.98,45.37-45.83,74.52-10.85,29.16-16.27,61.7-16.27,97.62s5.01,65.78,15.05,93.77c10.02,27.99,24.54,52.02,43.56,72.07,19.01,20.06,42.28,35.51,69.8,46.36,27.52,10.85,58.78,16.26,93.77,16.26,11.43,0,22.98-.7,34.63-2.1,11.66-1.4,23.21-3.5,34.63-6.3,11.43-2.8,22.5-6.18,33.24-10.14,10.73-3.96,19.47-7.63,26.24-11.02,6.77-3.38,11.2-7.28,13.29-11.72,2.1-4.43,3.15-9.67,3.15-15.75v-164.73c-1.38.35-2.78.66-4.18.92-.87,1.3-2.31,2.25-4.29,2.35-9.72.52-19.41,1.26-29.1.14-6.75,8.96-13.74,17.82-22.61,24.76v120.8c-12.37,6.77-25.72,11.84-40.06,15.22-14.34,3.39-28.51,5.08-42.51,5.08-23.57,0-45.19-3.96-64.9-11.9-19.72-7.93-36.68-19.6-50.91-34.98-14.23-15.4-25.37-34.28-33.42-56.68-8.05-22.39-12.07-48.05-12.07-76.98,0-25.89,3.67-49.91,11.02-72.07,7.35-22.15,17.9-41.29,31.66-57.38,13.76-16.1,30.55-28.69,50.38-37.78,19.82-9.09,42.21-13.64,67.17-13.64,20.99,0,39.13,2.22,54.41,6.65,15.28,4.43,28.39,9.33,39.36,14.7,10.96,5.37,19.71,10.26,26.24,14.7,6.53,4.43,11.2,6.65,13.99,6.65v.02Z" fill="#000" stroke="#000" stroke-miterlimit="10" stroke-width="8"/>
  </g>
  <g id="Layer_2" data-name="Layer 2">
    <rect x="370.08" y="183.76" width="69.06" height="201.34" rx="12.92" ry="12.92" fill="#2e3191" stroke-width="0"/>
    <rect x="303.94" y="249.9" width="201.34" height="69.06" rx="12.92" ry="12.92" fill="#2e3191" stroke-width="0"/>
  </g>
  <g>
    <path d="M737.07,127.01v86.57h-13.52l-9.3-22.82c-9.84,16.95-25.1,25.42-45.76,25.42-23.07,0-40.29-8.76-51.66-26.29-11.37-17.53-17.05-37.83-17.05-60.9,0-24.39,6.34-45.04,19.04-61.95,12.69-16.91,30.45-25.36,53.27-25.36,17.03,0,31.05,4.94,42.04,14.82,10.99,9.88,17.94,22.18,20.84,36.9l-26.54,4.71c-4.96-20.67-16.83-31.01-35.6-31.01-11.99,0-21.77,4.88-29.33,14.63-7.56,9.76-11.35,24.76-11.35,45.02,0,42.75,13.39,64.12,40.18,64.12,10.42,0,19.04-3.6,25.86-10.79,6.82-7.19,10.23-16.7,10.23-28.53h-34.97v-24.56h63.62Z" fill="#2e3191" stroke-width="0"/>
    <path d="M802.18,213.58h-30.51V44.29h69.33c19.76,0,34.42,4.98,43.97,14.95,9.55,9.96,14.32,21.73,14.32,35.28,0,15.46-5.17,27.99-15.5,37.58-10.34,9.59-23.44,14.39-39.32,14.39h-42.29v67.1ZM802.18,120.31h36.09c9.43,0,16.62-2.31,21.58-6.95,4.96-4.63,7.44-10.79,7.44-18.48,0-6.95-2.29-12.9-6.88-17.86-4.59-4.96-12.88-7.44-24.87-7.44h-33.36v50.73Z" fill="#2e3191" stroke-width="0"/>
    <path d="M1045.52,213.58h-32.62l-13.52-40.31h-65.11l-13.27,40.31h-26.04l56.18-169.29h37.58l56.8,169.29ZM991.2,148.84l-24.68-75.53-24.68,75.53h49.36Z" fill="#2e3191" stroke-width="0"/>
    <path d="M703.21,459.59l28.28,3.1c-1.82,16.95-8.37,30.9-19.66,41.86-11.29,10.96-26.11,16.43-44.46,16.43-15.46,0-28.01-3.89-37.64-11.66-9.63-7.77-17.05-18.31-22.26-31.63-5.21-13.31-7.81-27.99-7.81-44.03,0-25.8,6.12-46.78,18.36-62.94,12.24-16.16,29.06-24.25,50.48-24.25,16.78,0,30.76,5.17,41.92,15.5,11.16,10.34,18.19,25.14,21.08,44.4l-28.28,2.98c-5.21-25.55-16.7-38.32-34.48-38.32-11.41,0-20.28,5.31-26.6,15.94-6.33,10.62-9.49,26.03-9.49,46.2s3.39,35.99,10.17,46.45c6.78,10.46,15.75,15.69,26.91,15.69,8.93,0,16.54-3.51,22.82-10.54,6.28-7.03,9.84-15.42,10.67-25.18Z" fill="#2e3191" stroke-width="0"/>
    <path d="M861.22,518.38h-26.91c-2.4-7.61-3.84-16.04-4.34-25.3-7.53,18.6-21.66,27.91-42.42,27.91-12.49,0-22.51-3.66-30.08-10.98-7.57-7.32-11.35-16.51-11.35-27.6,0-28.77,25.26-43.16,75.78-43.16,1.98,0,4.67.04,8.06.12v-9.43c0-12.98-8.85-19.47-26.54-19.47s-26.96,6.49-29.27,19.47l-24.06-3.6c1.32-10.42,6.7-19,16.12-25.73,9.43-6.74,23.07-10.11,40.93-10.11,9.67,0,17.57.81,23.69,2.42,6.12,1.61,11.29,4.34,15.5,8.19,4.22,3.84,7.13,8.02,8.74,12.53,1.61,4.51,2.42,12.14,2.42,22.88v56.55c0,8.19,1.24,16.62,3.72,25.3ZM829.97,454.63c-36.55,0-54.82,8.72-54.82,26.17,0,5.21,1.84,9.65,5.52,13.33,3.68,3.68,9.24,5.52,16.68,5.52,10.75,0,18.87-3.41,24.37-10.23,5.5-6.82,8.25-14.57,8.25-23.25v-11.53Z" fill="#2e3191" stroke-width="0"/>
    <path d="M919.51,518.38h-28.28v-169.29h28.28v169.29Z" fill="#2e3191" stroke-width="0"/>
    <path d="M1025.8,472.37l24.31,2.48c-3.14,15.71-9.22,27.33-18.23,34.85-9.01,7.52-19.89,11.29-32.62,11.29-17.28,0-30.57-6.3-39.87-18.91-9.3-12.61-13.95-28.05-13.95-46.32s5.09-34.44,15.26-46.76c10.17-12.32,23.73-18.48,40.68-18.48,27.29,0,43.53,14.39,48.74,43.16l-24.31,3.35c-2.15-15.54-9.8-23.32-22.94-23.32-9.59,0-16.56,4.2-20.9,12.59-4.34,8.39-6.51,18.54-6.51,30.45,0,12.65,2.25,22.41,6.76,29.27,4.51,6.86,10.81,10.29,18.91,10.29,12.4,0,20.63-7.98,24.68-23.94Z" fill="#2e3191" stroke-width="0"/>
    <path d="M1174.87,518.38h-26.29v-27.04c-7.11,19.76-20.3,29.64-39.56,29.64-11.41,0-20.46-3.53-27.16-10.6-6.7-7.07-10.04-16.93-10.04-29.58v-87.68h28.9v81.61c0,9.01,1.98,14.93,5.95,17.74,3.97,2.81,7.86,4.22,11.66,4.22,6.12,0,12.36-2.75,18.73-8.25,6.37-5.5,9.55-17.22,9.55-35.16v-60.15h28.28v125.26Z" fill="#2e3191" stroke-width="0"/>
    <path d="M1237.01,518.38h-28.28v-169.29h28.28v169.29Z" fill="#2e3191" stroke-width="0"/>
    <path d="M1378.15,518.38h-26.91c-2.4-7.61-3.84-16.04-4.34-25.3-7.53,18.6-21.66,27.91-42.42,27.91-12.49,0-22.51-3.66-30.08-10.98-7.57-7.32-11.35-16.51-11.35-27.6,0-28.77,25.26-43.16,75.78-43.16,1.98,0,4.67.04,8.06.12v-9.43c0-12.98-8.85-19.47-26.54-19.47s-26.96,6.49-29.27,19.47l-24.06-3.6c1.32-10.42,6.7-19,16.12-25.73,9.43-6.74,23.07-10.11,40.93-10.11,9.67,0,17.57.81,23.69,2.42,6.12,1.61,11.29,4.34,15.5,8.19,4.22,3.84,7.13,8.02,8.74,12.53,1.61,4.51,2.42,12.14,2.42,22.88v56.55c0,8.19,1.24,16.62,3.72,25.3ZM1346.9,454.63c-36.55,0-54.82,8.72-54.82,26.17,0,5.21,1.84,9.65,5.52,13.33,3.68,3.68,9.24,5.52,16.68,5.52,10.75,0,18.87-3.41,24.37-10.23,5.5-6.82,8.25-14.57,8.25-23.25v-11.53Z" fill="#2e3191" stroke-width="0"/>
    <path d="M1466.33,496.3v22.08c-8.43,1.82-14.96,2.73-19.6,2.73-7.61,0-14.14-1.51-19.6-4.53-5.46-3.02-9.45-7.15-11.97-12.4-2.52-5.25-3.78-13.33-3.78-24.25v-64.86h-15.63v-21.95h17.24l2.61-32.62,23.19-2.11v34.73h25.18v21.95h-25.18v61.14c0,7.86,1.43,13.21,4.28,16.06s8.25,4.28,16.19,4.28c2.23,0,4.59-.08,7.07-.25Z" fill="#2e3191" stroke-width="0"/>
    <path d="M1534.54,520.98c-18.52,0-32.66-6.65-42.42-19.97-9.76-13.31-14.63-28.57-14.63-45.76,0-18.52,5.39-33.94,16.19-46.26,10.79-12.32,25.03-18.48,42.73-18.48,16.78,0,30.57,6,41.36,17.98,10.79,11.99,16.19,27.58,16.19,46.76s-5.6,35.66-16.81,47.69c-11.2,12.03-25.4,18.05-42.6,18.05ZM1535.53,497.67c19.02,0,28.53-14.18,28.53-42.54,0-12.82-2.28-22.92-6.82-30.32-4.55-7.4-11.54-11.1-20.96-11.1s-16.99,3.83-21.7,11.47c-4.71,7.65-7.07,17.8-7.07,30.45,0,13.64,2.5,24.06,7.5,31.25,5,7.19,11.84,10.79,20.53,10.79Z" fill="#2e3191" stroke-width="0"/>
    <path d="M1648.15,518.38h-28.28v-125.26h25.55v29.89c3.64-11.66,8.64-20.17,15.01-25.55,6.37-5.37,12.9-8.06,19.6-8.06.91,0,2.15.04,3.72.12v30.39c-14.39,0-23.92,4.59-28.59,13.77-4.67,9.18-7.01,18.07-7.01,26.67v58.04Z" fill="#2e3191" stroke-width="0"/>
  </g>
</svg>